<svg id="logo" xmlns="http://www.w3.org/2000/svg" width="120.618" height="153" viewBox="0 0 120.618 153">
  <g id="グループ_267" data-name="グループ 267">
    <g id="グループ_265" data-name="グループ 265" transform="translate(6.891)">
      <path id="パス_75" data-name="パス 75" d="M299.413,520.845a51.073,51.073,0,0,0-20.167,97.99V579.952h-7.531v-5.47h13v46.34a50.747,50.747,0,0,0,6.115,1.425V574.482H296.3v48.4c1.031.062,2.067.1,3.114.1,1.008,0,2.007-.037,3-.094v-48.4h5.469v47.786A50.787,50.787,0,0,0,314,620.855V574.482h13.227v5.47h-7.757v38.934a51.075,51.075,0,0,0-20.054-98.041Zm27.811,48.166h-55.51v-5.47h55.51Zm8.288-10.94h-72.2V552.6h72.2Z" transform="translate(-248.354 -520.845)" fill="#0b104d"/>
    </g>
    <g id="グループ_266" data-name="グループ 266" transform="translate(0 119.616)">
      <path id="パス_76" data-name="パス 76" d="M240.311,693.15V661.3h9v24.094h13.851v7.756Z" transform="translate(-240.311 -660.555)" fill="#0b104d"/>
      <rect id="長方形_163" data-name="長方形 163" width="8.996" height="31.85" transform="translate(29.077 0.744)" fill="#0b104d"/>
      <rect id="長方形_164" data-name="長方形 164" width="8.996" height="31.85" transform="translate(78.278 0.744)" fill="#0b104d"/>
      <path id="パス_77" data-name="パス 77" d="M362.27,693.815c-8.572,0-13.583-3.687-14.186-10.406h8.883c.517,3.365,3.179,3.814,5.483,3.814,1.194,0,4.826,0,4.826-2.913,0-2.146-1.952-2.864-5.1-3.327l-3.894-.558c-3.538-.507-9.472-2.452-9.472-9.791,0-6.676,4.529-10.2,13.1-10.2,8.3,0,12.718,3.163,13.486,9.663H367.14c-.444-2.183-1.97-3.163-4.87-3.163-3.728,0-4.51,1.508-4.51,2.773,0,2.35,2.683,2.734,3.564,2.861l3.893.558c7.709,1.113,11.146,4.076,11.146,9.605C376.363,689.774,371.226,693.815,362.27,693.815Z" transform="translate(-255.745 -660.431)" fill="#0b104d"/>
      <path id="パス_78" data-name="パス 78" d="M319.887,693.149l-4.733-12.8c2.637-1.609,4.59-4.326,4.59-8.767,0-6.03-4.1-10.284-12.491-10.284h-14.09v31.85h9V682.472h4.214c.475,0,.968-.016,1.473-.049l3.763,10.726Zm-17.729-17.232v-7.793h4.691c3.428,0,4.148,2.141,4.148,3.938s-.72,3.855-4.148,3.855Z" transform="translate(-247.88 -660.555)" fill="#0b104d"/>
    </g>
  </g>
</svg>
